<svg xmlns="http://www.w3.org/2000/svg" width="337.5" height="61" viewBox="0 0 337.5 61"><g transform="translate(-19.5 -123)"><rect width="337.5" height="61" rx="5" transform="translate(19.5 123)" fill="#39579c"/><path d="M5,0H54a0,0,0,0,1,0,0V61a0,0,0,0,1,0,0H5a5,5,0,0,1-5-5V5A5,5,0,0,1,5,0Z" transform="translate(19.5 123)" fill="#2e4a8d"/><g transform="translate(535 259)"><g transform="translate(-517 -116)"><path d="M34.513,0l-3.1,0c-3.482,0-5.733,2.309-5.733,5.882V8.595H22.564a.487.487,0,0,0-.487.488v3.93a.487.487,0,0,0,.487.487h3.117v9.916a.487.487,0,0,0,.487.487h4.066a.487.487,0,0,0,.487-.487V13.5h3.644a.487.487,0,0,0,.487-.487V9.082a.488.488,0,0,0-.488-.488H30.722V6.3c0-1.105.263-1.666,1.7-1.666h2.088A.487.487,0,0,0,35,4.141V.492A.488.488,0,0,0,34.513,0Z" fill="#fff"/></g></g><text transform="translate(135 158)" fill="#fff" font-size="13" font-family="OpenSans-Semibold, Open Sans" font-weight="600"><tspan x="0" y="0">ENTRAR COM FACEBOOK</tspan></text></g></svg>